<?xml version="1.0" encoding="iso-8859-1"?>
<!-- Generator: Adobe Illustrator 19.0.0, SVG Export Plug-In . SVG Version: 6.00 Build 0)  -->
<svg version="1.1" id="Capa_1" xmlns="http://www.w3.org/2000/svg" xmlns:xlink="http://www.w3.org/1999/xlink" x="0px" y="0px"
	 viewBox="0 0 512 512" style="enable-background:new 0 0 512 512;" xml:space="preserve">
	
	<path d="M346,232.841 H166 c-8.284,0-15,6.716-15,15 v255 h210 v-255 C361,239.557,354.284,232.841,346,232.841z"/>
	
	<path d="M356.664,81.625c-1.772-5.435-6.46-9.39-12.114-10.21l-51.885-7.544L269.447,16.85c-5.039-10.254-21.855-10.254-26.895,0
		l-23.218,47.021l-51.885,7.544c-5.654,0.82-10.342,4.775-12.114,10.21c-1.758,5.42-0.293,11.382,3.794,15.366l37.559,36.606
		l-8.862,51.694c-0.967,5.625,1.348,11.309,5.962,14.663c4.644,3.369,10.796,3.823,15.791,1.143L256,176.708l46.421,24.39
		c4.975,2.637,11.146,2.25,15.791-1.143c4.614-3.354,6.929-9.038,5.962-14.663l-8.862-51.694l37.559-36.606
		C356.957,93.007,358.422,87.045,356.664,81.625z"/>
	
	<path d="M497,352.841H391v150h106c8.291,0,15-6.709,15-15v-120C512,359.55,505.291,352.841,497,352.841z"/>
	
	<path d="M15,322.841c-8.291,0-15,6.709-15,15v150c0,8.291,6.709,15,15,15h106v-180H15z"/>
</svg>
